<svg id="0f1a5db1-f09a-4088-929a-e4d6ca6cb6f0" data-name="Logos" xmlns="http://www.w3.org/2000/svg" viewBox="0 0 344 360"><title>Tuomas Hatakka Vector Text 2</title><line x1="184.9934" y1="148.2801" x2="184.9962" y2="148.2865"></line><path d="M131.223,112.5695C148.7385,69.532,170.0171,52,170.0171,52a25.4736,25.4736,0,0,1,5.4531,8.5265c2.5181,7.5353,1.6361,9.2162,1.6361,9.2162l1.6617-.7326s1.3921,1.4812,1.797,5.81c0.776,8.2267.6682,9.9149,0.0266,13.0157l1.8317-.4775s0.36,4.8425.3355,7.4754c-0.0631,6.05-.5758,8.4465-1.6316,11.036l1.5328,0.1184a39.0757,39.0757,0,0,1-1.8171,10.3678c-1.8244,4.843-2.9541,6.1487-2.9541,6.1487l3.4038-1.1243s-5.5345,15.4374-12.5277,24.1618c-24.42,30.47-47.5871,28.6763-47.5871,28.6763S112.2,159.3147,131.223,112.5695Z"></path><path d="M134.422,146.6061c-7.8679-13.5505-22.7483-16.2473-37.8837-7.719-16.4214,9.2573-9.3194,26.9181-15.9927,33.5969-3.0373,3.0409-9.3633,7.3734-15.9068,11.5112C54.5808,190.3468,44,196.23,44,196.23l0.819,1.7449s10.0671-5.7438,20.6315-10.94c8.5955-4.2264,18.1032-8.7628,22.2117-8.7574,8.5965,0.0142,23.2191,12.18,40.7584.4813C137.2025,172.8994,144.1062,163.2853,134.422,146.6061Z"></path><path d="M169.4,288.9175c11.6365-5.485,15.6929-36.2046,13.43-52.2715-3.3591-23.8817-3.4414-37.3015-22.3782-64.2927-13.896-19.8088-28.4-12.471-39.9129-23.7757L105.4181,180.26c8.4146-1.7449,2.47,18.0576,17.79,38.4879,3.9541,5.273,23.2885,24.294,27.7956,28.4967,3.401,3.1735,1.0739,5.0655,4.1689,9.526l4.4531-1.0694c-4.2191,8.452-.3419,17.6983-0.3419,17.6983,1.8619-.1947,4.955-3.1671,4.955-3.1671C157.9985,280.3887,169.4,288.9175,169.4,288.9175Z"></path><path d="M119.4073,178.5523s15.7048,16.8035,38.8609,21.9147c11.4015,2.5173,40.1861,2.55,40.1861,2.55l0.0019-2.9862s5.6341,0.7367,9.3478-.4406c3.1936-1.0118,12.2-5.0673,12.2-5.0673l-1.2156-2.1023s10.356-2.4021,13.5514-3.6845c2.7531-1.1069,9.611-6.2785,9.611-6.2785l-0.8884-1.849a24.6366,24.6366,0,0,0,9.7325-3.5739c4.4056-2.8728,16.1308-12.9331,16.1308-12.9331l-0.4963-3.2676a15.54,15.54,0,0,0,6.7008-3.1237c3.6433-3.12,13.088-13.6446,13.088-13.6446l-2.945-2.1685s2.7686-1.4537,8.0773-9.6312a70.0806,70.0806,0,0,0,4.7977-10.0287l-2.1132-1.0923s1.8893-1.3792,5.5765-8.4863a33.7356,33.7356,0,0,0,3.2156-9.7029s-49.71,2.3038-93.2583,15.772C151.7832,136.5989,119.4073,178.5523,119.4073,178.5523Z"></path></svg>